<svg xmlns="http://www.w3.org/2000/svg" width="67.83" height="72.12" viewBox="0 0 67.83 72.12">
  <g id="Group_1" data-name="Group 1" transform="translate(-390.93 -182)">
    <g id="cheers" transform="translate(393.407 180)">
      <path id="Path_2" data-name="Path 2" d="M25.063,27.666l-9.435-1.847-.266,1.522-3.8-.665A4.63,4.63,0,0,0,6.2,30.442L3.666,44.9a4.635,4.635,0,0,0,3.767,5.36l3.8.666-.4,2.282a1.545,1.545,0,1,0-.533,3.043l21.3,3.726a1.545,1.545,0,1,0,.532-3.044L33,52.022s-7.813-22.769-7.864-23.074ZM11.769,47.882,8.726,47.35a2.316,2.316,0,0,1-1.883-2.681L9.1,31.735a2.316,2.316,0,0,1,2.681-1.883l3.043.532Z" fill="#cfcfcf"/>
      <path id="Path_3" data-name="Path 3" d="M25,28.965l.134-.044-.071-1.255-9.244-1.809L11,53a1,1,0,0,0,.831,1.144L31.857,57.82A1,1,0,0,0,33,57l-.552-5.648Z" fill="#f4c734"/>
      <path id="Path_4" data-name="Path 4" d="M25.463,29.377,34.419,55.7a1.545,1.545,0,1,0,1,2.924l20.473-6.965a1.545,1.545,0,0,0-1-2.924L54,46.1l3.078-1.047a4.634,4.634,0,0,0,2.894-5.879L55.241,25.28a4.633,4.633,0,0,0-5.88-2.9l-3.077,1.047-.347-1.02Zm29.883,13-2.346.8-5.721-16.82,2.346-.8A2.318,2.318,0,0,1,52.565,27l4.229,12.43a2.317,2.317,0,0,1-1.448,2.942Z" transform="translate(-0.943)" fill="#cfcfcf"/>
      <path id="Path_5" data-name="Path 5" d="M46,22,25,28.965,33.661,55A1.077,1.077,0,0,0,35,55.62l19.332-6.354A.988.988,0,0,0,55,48Z" transform="translate(-0.943)" fill="#f4c734"/>
      <g id="Group_1-2" data-name="Group 1" transform="translate(11 3)">
        <path id="Path_6" data-name="Path 6" d="M25.093,27.112a4.557,4.557,0,0,1,4.72-3.992,4.938,4.938,0,0,1,.292-.4,3.773,3.773,0,0,0-.373-.1,9.251,9.251,0,0,0-3.36.2,6.176,6.176,0,0,0-10.744,2.992l9.435,1.847C25.07,27.48,25.068,27.294,25.093,27.112Z" transform="translate(-11 -3)" fill="#f9f2cc"/>
        <circle id="Ellipse_1" data-name="Ellipse 1" cx="2" cy="2" r="2" transform="translate(29)" fill="#f9f2cc"/>
        <circle id="Ellipse_2" data-name="Ellipse 2" cx="4" cy="4" r="4" transform="translate(18 5)" fill="#f9f2cc"/>
        <circle id="Ellipse_3" data-name="Ellipse 3" cx="3" cy="3" r="3" transform="translate(5 7)" fill="#f9f2cc"/>
        <circle id="Ellipse_4" data-name="Ellipse 4" cx="2" cy="2" r="2" fill="#f9f2cc"/>
        <path id="Path_7" data-name="Path 7" d="M25.093,27.112a6.035,6.035,0,0,0,.042,1.837c.051.3.208.246.437.181.554-.158,1.1-.374,1.654-.563a1,1,0,0,1,1.269.624l.63,1.853a2.408,2.408,0,0,0,2.753,1.638,2.317,2.317,0,0,0,1.677-3.005l.455,1.337a2.408,2.408,0,0,0,2.752,1.638,2.318,2.318,0,0,0,1.678-3.005l-1.171-3.441a1,1,0,0,1,.625-1.268l7.827-2.663a6.176,6.176,0,0,0-11.077-1.3,4.62,4.62,0,0,0-4.831,2.145,4.6,4.6,0,0,0-4.72,3.992Z" transform="translate(-11 -3)" fill="#f9f2cc"/>
      </g>
      <path id="Path_8" data-name="Path 8" d="M39,5a3,3,0,1,0,3-3,3,3,0,0,0-3,3Zm4,0a1,1,0,1,1-1-1A1,1,0,0,1,43,5Z" transform="translate(-0.646)"/>
      <path id="Path_9" data-name="Path 9" d="M33,7a5,5,0,1,0,5,5A5,5,0,0,0,33,7Zm0,8a3,3,0,1,1,3-3A3,3,0,0,1,33,15Z" transform="translate(-0.488)"/>
      <path id="Path_10" data-name="Path 10" d="M19,17a4,4,0,1,0-4-4A4,4,0,0,0,19,17Zm0-6a2,2,0,1,1-2,2A2,2,0,0,1,19,11Z" transform="translate(-0.229)"/>
      <path id="Path_11" data-name="Path 11" d="M13,2a3,3,0,1,0,3,3A3,3,0,0,0,13,2Zm0,4a1,1,0,1,1,1-1A1,1,0,0,1,13,6Z"/>
      <path id="Path_12" data-name="Path 12" d="M0,0H2V20.081H0Z" transform="translate(36.63 34.123) rotate(-18.789)"/>
      <path id="Path_13" data-name="Path 13" d="M0,0H2V20.081H0Z" transform="translate(31.606 35.863) rotate(-18.789)"/>
      <path id="Path_14" data-name="Path 14" d="M0,0H2V20.081H0Z" transform="translate(41.655 32.38) rotate(-18.787)"/>
      <path id="Path_15" data-name="Path 15" d="M7.187,51.245l2.774.493-.089.514a2.552,2.552,0,0,0,.142,4.984l20.96,3.725A2.432,2.432,0,0,0,31.4,61a2.5,2.5,0,0,0,2.269-1.492,2.358,2.358,0,0,0,1.32-.074L55.14,52.469a2.553,2.553,0,0,0-.617-4.947l-.165-.493,2.666-.922a5.663,5.663,0,0,0,3.463-7.149l-4.65-13.893A5.523,5.523,0,0,0,48.8,21.546l-2.667.922-.172-.516a7.094,7.094,0,0,0-5.546-4.775,7.007,7.007,0,0,0-6.755,2.728,5.419,5.419,0,0,0-4.534,1.9,4.759,4.759,0,0,0-.649-.166,5.471,5.471,0,0,0-2.192.06A6.981,6.981,0,0,0,19.2,20.064a7.143,7.143,0,0,0-4.755,5.584l-.093.537-2.775-.493a5.552,5.552,0,0,0-6.416,4.579L2.68,44.725a5.634,5.634,0,0,0,4.507,6.52Zm16.508-22.9a5.63,5.63,0,0,0,.23,1.112l-7.89-1.4.184-1.07Zm2.44,1.524,1.015-.35.35,1.031-1.02.35ZM10.824,46.725,8.8,46.365a1.314,1.314,0,0,1-1.052-1.524L9.97,31.907a1.3,1.3,0,0,1,1.5-1.07l2.025.36Zm20.49,12.267-20.96-3.726a.538.538,0,0,1-.427-.347.552.552,0,0,1,.094-.548.531.531,0,0,1,.518-.179.986.986,0,0,0,1.139-.813L15.7,30.019l8.945,1.59L31.5,52.1l-.8,4.659a1.013,1.013,0,0,0,.164.747.982.982,0,0,0,.637.41.545.545,0,0,1,.435.632.537.537,0,0,1-.621.442Zm23.529-9.108a.546.546,0,0,1-.334.691L34.362,57.541a.535.535,0,0,1-.681-.34.548.548,0,0,1,.334-.693,1,1,0,0,0,.615-1.269l-7.515-22.45,1.173-.4a3.22,3.22,0,0,0,5.031.271,3.288,3.288,0,0,0,.949.714,3.223,3.223,0,0,0,3.6-.484,3.352,3.352,0,0,0,.936-3.56l-.173-.515L45.4,26.468l7.516,22.451a1,1,0,0,0,.5.576.97.97,0,0,0,.752.049.534.534,0,0,1,.678.34Zm-17.194-24,6.774-2.341.345,1.032L38,26.916Zm10.1,1.4,1.946-.673a1.276,1.276,0,0,1,.99.065,1.31,1.31,0,0,1,.654.759L55.5,39.864a1.323,1.323,0,0,1-.81,1.671l-1.946.673Zm1.69-3.844a3.564,3.564,0,0,1,4.538,2.27L58.626,39.6a3.652,3.652,0,0,1-2.234,4.61l-2.666.922L53.377,44.1l1.947-.673a3.334,3.334,0,0,0,2.038-4.209L53.2,26.788a3.258,3.258,0,0,0-4.141-2.072l-1.946.673-.344-1.031Zm-19.216.2a3.541,3.541,0,0,1,3.726-1.682.978.978,0,0,0,1.019-.451,5.043,5.043,0,0,1,8.718.175l-7.609,2.631a1,1,0,0,0-.611,1.269l1.468,4.387a1.322,1.322,0,0,1-.823,1.626,1.29,1.29,0,0,1-1.629-.778l-.492-1.462a.99.99,0,0,0-.74-.687A.975.975,0,0,0,32.3,29a1.013,1.013,0,0,0-.173,1,1.322,1.322,0,0,1-.811,1.67,1.291,1.291,0,0,1-1.644-.824l-.984-2.925A.98.98,0,0,0,27.44,27.3l-1.8.622a3.627,3.627,0,0,1,2.4-3.613,3.464,3.464,0,0,1,1.29-.187.97.97,0,0,0,.885-.48ZM22.29,21.783a5.018,5.018,0,0,1,2.963,1.7.989.989,0,0,0,.173.15,5.69,5.69,0,0,0-1.581,2.7l-7.184-1.307a5.088,5.088,0,0,1,5.626-3.244ZM4.618,45.069,7.107,30.614a3.638,3.638,0,0,1,1.467-2.349,3.528,3.528,0,0,1,2.672-.6l2.773.492-.184,1.074-2.025-.36a3.223,3.223,0,0,0-2.44.554,3.323,3.323,0,0,0-1.339,2.146L5.8,44.5a3.315,3.315,0,0,0,2.657,3.839l2.025.36L10.3,49.773l-2.783-.5a3.635,3.635,0,0,1-2.9-4.206Z"/>
      <path id="Path_16" data-name="Path 16" d="M0,0H20.081V2H0Z" transform="translate(20.058 55.66) rotate(-80.078)"/>
      <path id="Path_17" data-name="Path 17" d="M0,0H11.922V2H0Z" transform="translate(25.301 56.599) rotate(-80.639)"/>
      <path id="Path_18" data-name="Path 18" d="M0,0H20.08V2H0Z" transform="matrix(0.172, -0.985, 0.985, 0.172, 14.826, 54.727)"/>
    </g>
    <path id="Beerland" d="M6.735-3.21c0,.75-.5,1.14-1.35,1.14H3.5V-4.395h1.86C6.21-4.395,6.735-3.96,6.735-3.21ZM6.48-7.365c0,.72-.465,1.1-1.3,1.1H3.5V-8.475h1.68C6.015-8.475,6.48-8.085,6.48-7.365Zm2.85,4.5A2.553,2.553,0,0,0,7.305-5.4,2.389,2.389,0,0,0,9.09-7.8c0-1.665-1.275-2.73-3.42-2.73H.93V0H5.835C8.055,0,9.33-1.125,9.33-2.865Zm5.175-3.57a1.447,1.447,0,0,1,1.575,1.44H12.87A1.586,1.586,0,0,1,14.505-6.435Zm4.005,3.66H15.78a1.364,1.364,0,0,1-1.335.81,1.552,1.552,0,0,1-1.59-1.605h5.8a6.482,6.482,0,0,0,.045-.75,3.944,3.944,0,0,0-4.17-4.17,4.02,4.02,0,0,0-4.23,4.305A4.035,4.035,0,0,0,14.535.12,3.912,3.912,0,0,0,18.51-2.775Zm5.235-3.66a1.447,1.447,0,0,1,1.575,1.44H22.11A1.586,1.586,0,0,1,23.745-6.435Zm4,3.66H25.02a1.364,1.364,0,0,1-1.335.81A1.552,1.552,0,0,1,22.1-3.57H27.9a6.482,6.482,0,0,0,.045-.75,3.944,3.944,0,0,0-4.17-4.17,4.02,4.02,0,0,0-4.23,4.305A4.035,4.035,0,0,0,23.775.12,3.912,3.912,0,0,0,27.75-2.775Zm4.11-1.11c0-1.44.7-1.86,1.92-1.86h.705V-8.46A3.12,3.12,0,0,0,31.86-6.975v-1.4H29.3V0H31.86ZM35.715,0H38.28V-11.1H35.715ZM39.63-4.2c0,2.64,1.635,4.32,3.675,4.32A2.96,2.96,0,0,0,45.9-1.185V0h2.565V-8.37H45.9v1.185A2.913,2.913,0,0,0,43.32-8.49C41.265-8.49,39.63-6.84,39.63-4.2Zm6.27.015a1.869,1.869,0,0,1-1.83,2.07A1.891,1.891,0,0,1,42.24-4.2a1.864,1.864,0,0,1,1.83-2.055A1.869,1.869,0,0,1,45.9-4.185ZM56.1,0h2.55V-4.89c0-2.25-1.29-3.57-3.225-3.57a3.069,3.069,0,0,0-2.535,1.2V-8.37H50.325V0H52.89V-4.545a1.555,1.555,0,0,1,1.6-1.77A1.555,1.555,0,0,1,56.1-4.545Zm3.825-4.2c0,2.64,1.635,4.32,3.69,4.32a2.9,2.9,0,0,0,2.58-1.32V0H68.76V-11.1H66.195v3.885a3.072,3.072,0,0,0-2.58-1.275C61.56-8.49,59.925-6.84,59.925-4.2Zm6.27.015a1.869,1.869,0,0,1-1.83,2.07A1.891,1.891,0,0,1,62.535-4.2a1.864,1.864,0,0,1,1.83-2.055A1.869,1.869,0,0,1,66.195-4.185Z" transform="translate(390 254)"/>
  </g>
</svg>
